<?xml version="1.0" encoding="utf-8"?>
<!-- Generator: Adobe Illustrator 16.0.4, SVG Export Plug-In . SVG Version: 6.00 Build 0)  -->
<!DOCTYPE svg PUBLIC "-//W3C//DTD SVG 1.1//EN" "http://www.w3.org/Graphics/SVG/1.1/DTD/svg11.dtd">
<svg version="1.1" id="Capa_1" xmlns="http://www.w3.org/2000/svg" xmlns:xlink="http://www.w3.org/1999/xlink" x="0px" y="0px"
	 width="64px" height="64px" viewBox="0 0 64 64" enable-background="new 0 0 64 64" xml:space="preserve">
<g>
	<rect x="23.156" y="11.769" width="1.573" height="10.486"/>
	<rect x="25.777" y="11.769" width="1.574" height="10.486"/>
	<path d="M17.323,14.251c-0.197,0.677-0.369,1.417-0.493,2.226l-0.885,5.778h1.378V14.251z"/>
	<rect x="28.399" y="11.769" width="1.573" height="10.486"/>
	<rect x="18.372" y="11.769" width="1.114" height="10.486"/>
	<rect x="20.535" y="11.769" width="1.572" height="10.486"/>
	<rect x="31.021" y="11.769" width="1.572" height="10.486"/>
	<path d="M30.601,6.188c0-1.9-0.795-3.44-3.716-3.44c-2.921,0-3.716,1.54-3.716,3.44c0,0-0.315,0.688-0.714,1.562h8.481
		C30.742,7.279,30.601,6.751,30.601,6.188z"/>
	<path d="M40.111,25.072c0-0.964-0.475-1.747-1.062-1.747h-1.062c0,0-0.002-0.012-0.004-0.021h-22.2l-0.003,0.021
		c0,0-0.471,0-1.051,0c-0.581,0-1.052,0.783-1.052,1.747V26.1h26.433C40.111,25.81,40.111,25.458,40.111,25.072z"/>
	<path d="M40.85,27.148H12.922c-0.019,0.061-0.029,0.127-0.029,0.197v4.281c0,0.29,0.161,0.524,0.36,0.524
		c0.199,0,0.36,0.234,0.36,0.524v0.35c0,0.289-0.078,0.523-0.175,0.523s-0.175,0.235-0.175,0.523v21.673
		c0,1.448,1.174,2.62,2.621,2.62h22.021c1.449,0,2.623-1.172,2.623-2.62v-21.67c0-0.289-0.078-0.524-0.176-0.524
		c-0.097,0-0.175-0.234-0.175-0.523v-0.35c0-0.29,0.156-0.524,0.351-0.524c0.191,0,0.35-0.234,0.35-0.524v-4.281
		C40.877,27.275,40.865,27.209,40.85,27.148z M38.384,45.146c0,0.869-0.704,1.574-1.573,1.574H16.975
		c-0.869,0-1.573-0.705-1.573-1.574v-8.912c0-0.868,0.704-1.572,1.573-1.572h19.835c0.869,0,1.573,0.704,1.573,1.572V45.146z"/>
	<path d="M36.939,16.477c-0.16-1.042-0.399-1.969-0.676-2.788v8.566h1.56C37.639,21.04,37.312,18.909,36.939,16.477z"/>
	<rect x="33.643" y="11.769" width="1.572" height="10.486"/>
	<path d="M34.032,9.628c-0.437-0.45-1.259-0.583-1.944-0.83H21.034c-0.38,0.15-0.816,0.371-1.297,0.83
		c-0.225,0.215-0.526,0.582-0.855,1.093h15.981C34.541,10.217,34.246,9.85,34.032,9.628z"/>
	<path d="M30.433,39.658h-2.141c-0.142,0-0.257-0.114-0.257-0.256v-2.141c0-0.142-0.114-0.256-0.255-0.256h-1.792
		c-0.141,0-0.255,0.114-0.255,0.256v2.141c0,0.142-0.115,0.256-0.257,0.256h-2.141c-0.142,0-0.256,0.113-0.256,0.256v1.792
		c0,0.142,0.114,0.256,0.256,0.256h2.141c0.142,0,0.257,0.113,0.257,0.255v2.143c0,0.141,0.114,0.256,0.255,0.256h1.792
		c0.141,0,0.255-0.115,0.255-0.256v-2.143c0-0.142,0.115-0.255,0.257-0.255h2.141c0.142,0,0.256-0.114,0.256-0.256v-1.792
		C30.688,39.771,30.574,39.658,30.433,39.658z"/>
</g>
</svg>
